<mxfile host="app.diagrams.net" agent="Mozilla/5.0 (Macintosh; Intel Mac OS X 10_15_7) AppleWebKit/537.36 (KHTML, like Gecko) Chrome/136.0.0.0 Safari/537.36" version="27.0.5">
  <diagram name="Page-1" id="RVKCvZgy4VuLs7nj0CDS">
    <mxGraphModel dx="1785" dy="626" grid="1" gridSize="10" guides="1" tooltips="1" connect="1" arrows="1" fold="1" page="1" pageScale="1" pageWidth="850" pageHeight="1100" math="0" shadow="0">
      <root>
        <mxCell id="0" />
        <mxCell id="1" parent="0" />
        <mxCell id="heEMUXXf4dQ5ZzVVvzIq-2" value="Start" style="html=1;dashed=0;whiteSpace=wrap;shape=mxgraph.dfd.start" vertex="1" parent="1">
          <mxGeometry x="-555" y="190" width="80" height="30" as="geometry" />
        </mxCell>
        <mxCell id="heEMUXXf4dQ5ZzVVvzIq-3" value="&lt;div&gt;&lt;br&gt;&lt;/div&gt;Input required information" style="html=1;strokeWidth=2;shape=manualInput;whiteSpace=wrap;rounded=1;size=26;arcSize=11;" vertex="1" parent="1">
          <mxGeometry x="-565" y="340" width="100" height="60" as="geometry" />
        </mxCell>
        <mxCell id="heEMUXXf4dQ5ZzVVvzIq-4" value="Register&amp;nbsp;&lt;div&gt;Organizer&lt;/div&gt;" style="strokeWidth=1;html=1;shape=mxgraph.flowchart.display;whiteSpace=wrap;" vertex="1" parent="1">
          <mxGeometry x="-570" y="260" width="100" height="60" as="geometry" />
        </mxCell>
        <mxCell id="heEMUXXf4dQ5ZzVVvzIq-5" style="edgeStyle=orthogonalEdgeStyle;rounded=0;orthogonalLoop=1;jettySize=auto;html=1;entryX=0.552;entryY=-0.019;entryDx=0;entryDy=0;entryPerimeter=0;" edge="1" parent="1" source="heEMUXXf4dQ5ZzVVvzIq-2" target="heEMUXXf4dQ5ZzVVvzIq-4">
          <mxGeometry relative="1" as="geometry" />
        </mxCell>
        <mxCell id="heEMUXXf4dQ5ZzVVvzIq-6" style="edgeStyle=orthogonalEdgeStyle;rounded=0;orthogonalLoop=1;jettySize=auto;html=1;entryX=0.448;entryY=0.242;entryDx=0;entryDy=0;entryPerimeter=0;" edge="1" parent="1" source="heEMUXXf4dQ5ZzVVvzIq-4" target="heEMUXXf4dQ5ZzVVvzIq-3">
          <mxGeometry relative="1" as="geometry" />
        </mxCell>
        <mxCell id="heEMUXXf4dQ5ZzVVvzIq-7" style="edgeStyle=orthogonalEdgeStyle;rounded=0;orthogonalLoop=1;jettySize=auto;html=1;entryX=0.5;entryY=0;entryDx=0;entryDy=0;entryPerimeter=0;" edge="1" parent="1" source="heEMUXXf4dQ5ZzVVvzIq-3">
          <mxGeometry relative="1" as="geometry">
            <mxPoint x="-515" y="430" as="targetPoint" />
          </mxGeometry>
        </mxCell>
        <mxCell id="heEMUXXf4dQ5ZzVVvzIq-8" value="Clean inputs" style="html=1;dashed=0;whiteSpace=wrap;" vertex="1" parent="1">
          <mxGeometry x="-565" y="430" width="100" height="50" as="geometry" />
        </mxCell>
        <mxCell id="heEMUXXf4dQ5ZzVVvzIq-9" style="edgeStyle=orthogonalEdgeStyle;rounded=0;orthogonalLoop=1;jettySize=auto;html=1;" edge="1" parent="1" source="heEMUXXf4dQ5ZzVVvzIq-13">
          <mxGeometry relative="1" as="geometry">
            <mxPoint x="-515" y="330" as="targetPoint" />
            <Array as="points">
              <mxPoint x="-420" y="560" />
              <mxPoint x="-420" y="330" />
            </Array>
          </mxGeometry>
        </mxCell>
        <mxCell id="heEMUXXf4dQ5ZzVVvzIq-10" value="No" style="edgeLabel;html=1;align=center;verticalAlign=middle;resizable=0;points=[];" vertex="1" connectable="0" parent="heEMUXXf4dQ5ZzVVvzIq-9">
          <mxGeometry x="-0.8551" y="-1" relative="1" as="geometry">
            <mxPoint as="offset" />
          </mxGeometry>
        </mxCell>
        <mxCell id="heEMUXXf4dQ5ZzVVvzIq-11" style="edgeStyle=orthogonalEdgeStyle;rounded=0;orthogonalLoop=1;jettySize=auto;html=1;entryX=0.5;entryY=0;entryDx=0;entryDy=0;entryPerimeter=0;" edge="1" parent="1" source="heEMUXXf4dQ5ZzVVvzIq-13" target="heEMUXXf4dQ5ZzVVvzIq-24">
          <mxGeometry relative="1" as="geometry">
            <mxPoint x="-515" y="640" as="targetPoint" />
          </mxGeometry>
        </mxCell>
        <mxCell id="heEMUXXf4dQ5ZzVVvzIq-12" value="Yes" style="edgeLabel;html=1;align=center;verticalAlign=middle;resizable=0;points=[];" vertex="1" connectable="0" parent="heEMUXXf4dQ5ZzVVvzIq-11">
          <mxGeometry x="-0.1791" relative="1" as="geometry">
            <mxPoint as="offset" />
          </mxGeometry>
        </mxCell>
        <mxCell id="heEMUXXf4dQ5ZzVVvzIq-13" value="Are inputs&lt;div&gt;valid?&lt;/div&gt;" style="strokeWidth=2;html=1;shape=mxgraph.flowchart.decision;whiteSpace=wrap;" vertex="1" parent="1">
          <mxGeometry x="-565" y="510" width="100" height="100" as="geometry" />
        </mxCell>
        <mxCell id="heEMUXXf4dQ5ZzVVvzIq-14" style="edgeStyle=orthogonalEdgeStyle;rounded=0;orthogonalLoop=1;jettySize=auto;html=1;entryX=0.5;entryY=0;entryDx=0;entryDy=0;entryPerimeter=0;" edge="1" parent="1" source="heEMUXXf4dQ5ZzVVvzIq-8" target="heEMUXXf4dQ5ZzVVvzIq-13">
          <mxGeometry relative="1" as="geometry" />
        </mxCell>
        <mxCell id="heEMUXXf4dQ5ZzVVvzIq-15" value="Upload required licenses and certificates" style="html=1;dashed=0;whiteSpace=wrap;" vertex="1" parent="1">
          <mxGeometry x="-360" y="248" width="100" height="50" as="geometry" />
        </mxCell>
        <mxCell id="heEMUXXf4dQ5ZzVVvzIq-16" style="edgeStyle=orthogonalEdgeStyle;rounded=0;orthogonalLoop=1;jettySize=auto;html=1;entryX=0.5;entryY=0;entryDx=0;entryDy=0;" edge="1" parent="1" source="heEMUXXf4dQ5ZzVVvzIq-18">
          <mxGeometry relative="1" as="geometry">
            <mxPoint x="-310" y="468" as="targetPoint" />
          </mxGeometry>
        </mxCell>
        <mxCell id="heEMUXXf4dQ5ZzVVvzIq-17" value="Yes" style="edgeLabel;html=1;align=center;verticalAlign=middle;resizable=0;points=[];" vertex="1" connectable="0" parent="heEMUXXf4dQ5ZzVVvzIq-16">
          <mxGeometry x="-0.2182" relative="1" as="geometry">
            <mxPoint as="offset" />
          </mxGeometry>
        </mxCell>
        <mxCell id="heEMUXXf4dQ5ZzVVvzIq-18" value="Requirements complete?" style="strokeWidth=2;html=1;shape=mxgraph.flowchart.decision;whiteSpace=wrap;" vertex="1" parent="1">
          <mxGeometry x="-360" y="328" width="100" height="100" as="geometry" />
        </mxCell>
        <mxCell id="heEMUXXf4dQ5ZzVVvzIq-19" style="edgeStyle=orthogonalEdgeStyle;rounded=0;orthogonalLoop=1;jettySize=auto;html=1;entryX=0.5;entryY=0;entryDx=0;entryDy=0;entryPerimeter=0;" edge="1" parent="1" source="heEMUXXf4dQ5ZzVVvzIq-15" target="heEMUXXf4dQ5ZzVVvzIq-18">
          <mxGeometry relative="1" as="geometry" />
        </mxCell>
        <mxCell id="heEMUXXf4dQ5ZzVVvzIq-20" value="End" style="html=1;dashed=0;whiteSpace=wrap;shape=mxgraph.dfd.start" vertex="1" parent="1">
          <mxGeometry x="-350" y="548" width="80" height="30" as="geometry" />
        </mxCell>
        <mxCell id="heEMUXXf4dQ5ZzVVvzIq-21" style="edgeStyle=orthogonalEdgeStyle;rounded=0;orthogonalLoop=1;jettySize=auto;html=1;entryX=0.5;entryY=0.5;entryDx=0;entryDy=-15;entryPerimeter=0;" edge="1" parent="1" target="heEMUXXf4dQ5ZzVVvzIq-20">
          <mxGeometry relative="1" as="geometry">
            <mxPoint x="-310" y="518" as="sourcePoint" />
          </mxGeometry>
        </mxCell>
        <mxCell id="heEMUXXf4dQ5ZzVVvzIq-22" style="edgeStyle=orthogonalEdgeStyle;rounded=0;orthogonalLoop=1;jettySize=auto;html=1;entryX=1;entryY=0.64;entryDx=0;entryDy=0;entryPerimeter=0;" edge="1" parent="1" source="heEMUXXf4dQ5ZzVVvzIq-18" target="heEMUXXf4dQ5ZzVVvzIq-15">
          <mxGeometry relative="1" as="geometry">
            <Array as="points">
              <mxPoint x="-225" y="378" />
              <mxPoint x="-225" y="280" />
            </Array>
            <mxPoint x="-250" y="280" as="targetPoint" />
          </mxGeometry>
        </mxCell>
        <mxCell id="heEMUXXf4dQ5ZzVVvzIq-23" value="No" style="edgeLabel;html=1;align=center;verticalAlign=middle;resizable=0;points=[];" vertex="1" connectable="0" parent="heEMUXXf4dQ5ZzVVvzIq-22">
          <mxGeometry x="-0.8561" y="2" relative="1" as="geometry">
            <mxPoint as="offset" />
          </mxGeometry>
        </mxCell>
        <mxCell id="heEMUXXf4dQ5ZzVVvzIq-24" value="" style="verticalLabelPosition=bottom;verticalAlign=top;html=1;shape=mxgraph.flowchart.on-page_reference;" vertex="1" parent="1">
          <mxGeometry x="-535" y="660" width="40" height="40" as="geometry" />
        </mxCell>
        <mxCell id="heEMUXXf4dQ5ZzVVvzIq-25" value="A" style="text;html=1;align=center;verticalAlign=middle;whiteSpace=wrap;rounded=0;" vertex="1" parent="1">
          <mxGeometry x="-530" y="667.5" width="30" height="25" as="geometry" />
        </mxCell>
        <mxCell id="heEMUXXf4dQ5ZzVVvzIq-26" style="edgeStyle=orthogonalEdgeStyle;rounded=0;orthogonalLoop=1;jettySize=auto;html=1;" edge="1" parent="1" source="heEMUXXf4dQ5ZzVVvzIq-27" target="heEMUXXf4dQ5ZzVVvzIq-15">
          <mxGeometry relative="1" as="geometry" />
        </mxCell>
        <mxCell id="heEMUXXf4dQ5ZzVVvzIq-27" value="" style="verticalLabelPosition=bottom;verticalAlign=top;html=1;shape=mxgraph.flowchart.on-page_reference;" vertex="1" parent="1">
          <mxGeometry x="-330" y="185" width="40" height="40" as="geometry" />
        </mxCell>
        <mxCell id="heEMUXXf4dQ5ZzVVvzIq-28" value="A" style="text;html=1;align=center;verticalAlign=middle;whiteSpace=wrap;rounded=0;" vertex="1" parent="1">
          <mxGeometry x="-325" y="192.5" width="30" height="25" as="geometry" />
        </mxCell>
        <mxCell id="heEMUXXf4dQ5ZzVVvzIq-29" value="Create organizer application" style="html=1;dashed=0;whiteSpace=wrap;" vertex="1" parent="1">
          <mxGeometry x="-360" y="470" width="100" height="50" as="geometry" />
        </mxCell>
        <mxCell id="heEMUXXf4dQ5ZzVVvzIq-30" style="edgeStyle=orthogonalEdgeStyle;rounded=0;orthogonalLoop=1;jettySize=auto;html=1;entryX=1;entryY=0.5;entryDx=0;entryDy=0;" edge="1" parent="1">
          <mxGeometry relative="1" as="geometry">
            <mxPoint x="-210" y="491" as="sourcePoint" />
            <mxPoint x="-259.9999999999999" y="491" as="targetPoint" />
          </mxGeometry>
        </mxCell>
        <mxCell id="heEMUXXf4dQ5ZzVVvzIq-31" value="&lt;div&gt;&lt;br&gt;&lt;/div&gt;&lt;div&gt;public.&lt;/div&gt;&lt;div&gt;organizer_applications&lt;/div&gt;" style="strokeWidth=2;html=1;shape=mxgraph.flowchart.database;whiteSpace=wrap;" vertex="1" parent="1">
          <mxGeometry x="-210" y="465" width="140" height="60" as="geometry" />
        </mxCell>
        <mxCell id="heEMUXXf4dQ5ZzVVvzIq-32" style="edgeStyle=orthogonalEdgeStyle;rounded=0;orthogonalLoop=1;jettySize=auto;html=1;entryX=0;entryY=0.5;entryDx=0;entryDy=0;entryPerimeter=0;" edge="1" parent="1">
          <mxGeometry relative="1" as="geometry">
            <mxPoint x="-259.9999999999999" y="504" as="sourcePoint" />
            <mxPoint x="-210" y="504" as="targetPoint" />
          </mxGeometry>
        </mxCell>
      </root>
    </mxGraphModel>
  </diagram>
</mxfile>
